P1
# CREATOR: GIMP PNM Filter Version 1.1
80 80
1111111111111111111111111111111111111111111111111111111111111111111111
1111111111111111111111111111111111111111111111111111111111111111111111
1111111111111111111111111111111111111111111111111111111111111111111111
1111111111111111111111111111111111111111111111111111111111110000000001
0111111111111111111111111111111111111111111111111111111111111111110000
0000000000000001111111111111111111111111111111111111111111111111111111
1110000000000000000000000000111111111111111111111111111111111111111111
1111111111000000000000000000000000000000111111111111111111111111111111
1111111111111111111000000000000000000000000000000000111111111111111111
1111111111111111111111111110000000000111111111010000000000000000111111
1111111111111111111111111111111111100000000111111111111111111110000000
0000011111111111111111111111111111111111111100000111111111111111111111
1111110000000000111111111111111111111111111111111111100001111111111111
1111111111111111111000000001111111111111111111111111111111111100011111
1111111111111111111111111111110000000011111111111111111111111111111111
1000111111111111111111111111111111111111110000000111111111111111111111
1111111111001111111111111111111000100000111111111111100000001111111111
1111111111111111111001111111111111111000000000000000000111111111000000
0111111111111111111111111111001111111111111000000000000000000000000011
1111100000001111111111111111111111111101111111111110000000000000000000
0000000000111111000000111111111111111111111111101111111111100000000000
0000000000000000000000111110000001111111111111111111111111111111111000
0000000000001111111111111100000000111100000111111111111111111111111111
1111110000000000001111111111111111111111000001111000001111111111111111
1111111111111100000000000011111111100111111111111111000011100000111111
1111111111111111111111100000000001111111110001111111111111111111100111
0000111111111111111111111111111100000000011111111100011111111111111111
1111110011000001111111111111111111111111100000000011111111000011111111
1111111111111111101110000111111111111111111111111100000000111111110000
1111111111111111111111111111011000011111111111111111111111100000000111
1111100001111111111111111111111111111111110001111111111111111111111100
0000001111111000011111111111111111111111111111111111000111111111111111
1111111000000001111111000001111111111111111111111111111111111100011111
1111111111111111100000001111111000001111111111111111111111111111111111
1100011111111111111111111100000001111111000001111111111111111111111111
1111111111111001111111111111111111110000001111111000001111111111111111
1111111111111111111111100111111111111111111110000001111111000001111111
1111111111111111111111111111111100011111111111111111111000000111111100
0001111111111111111111111111111111111111111001111111111111111111000000
1111111000001111111111111111111111111111111111111111100111111111111111
1111000001111111000000111111111111111111111111111111111111111110011111
1111111111111000000111111100000111111111111111111111111111111111111111
1100011111111111111111100000111111100000010111111111111111111111111111
1111111111111011111111111111111110000011111110000011011111111111111111
1111111111111111111111001111111111111111110000011111110000001101111111
1111111111111111111111111111111100111111111111111111000001111111000001
1101111111111111111111111111111111111111110111111111111111111100000111
1111000001110011111111111111111111111111111111111111011111111111111111
1100001111111000000111001111111111111111111111111111111111111101111111
1111111111110000111111100000111100111111111111111111111111111111111111
1111111111111111111111000011111110000001110011111111111111111111111111
1111111111101111111111111111011100001111111000001111000111111111111111
1111111111111111111111111111111111111011110000111111100000111110011111
1111111111111111111111111111111111111111111111101111000011111110000011
1110011111111111111111111111111111111111111111111111111110111100001111
1110000011111000111111111111111111111111111111111111111111111111110011
1100001111111000001111100011111111111111111111111111111111111111111111
1111100111110000111111100000111110000111111111111111111111111111111111
1111111111111100111111100011111110000001111100001111111111111111111111
1111111111111111111111110011111110001111111000001111110000011111111111
1111111111111111111111111111111100011111111000111111100000011111100001
1111111111111111111111111111111111111111110011111111100011111110000001
1111100000111111111111111111111111111111111111111100001111111111001111
1110000001111111000001111111111111111111111111111111111111100001111111
1111001111111100000111111110000001111111111111111111111111111111111100
0011111111111110011111110000001111111000000011111111111111111111111111
1111110000011111111111111001111111000000111111110000000011111111111111
1111111111111100000011111111111111110111111100000001111111100000000011
1111111111111111111111000000011111111111111111001111111000000111111111
0000000000111111111111111111110000000011111111111111111110111111100000
0011111111110000000000101111111111111000000000111111111111111111111111
1111110000001111111111100000000000000000000000000000000111111111111111
1111111111111111100000011111111111100000000000000000000000000011111111
1111111111111111111111111110000000111111111111000000000000000000000000
0111111111111111111111111111111111111100000001111111111111100000000000
0000000011111111111111111111111111111111111111111000000111111111111111
1101000000000011111111111111111111111111111111111111111111110000000111
1111111111111111111111111111111111111111111111111111111111111111111111
1000000011111111111111111111111111111111111111111111111111111111111111
1111111111110000000111111111111111111111111111111111111111111111111111
1111111111111111111111110000000111111111111111111111111111111111111111
1111111111111111111111111111111111100000000111111111111111111111111111
1111111111111111111111111111111111111111111111100000000111111111111111
1111111111111111111111111111111111111111111111111111111111100000000001
1111111111111111111111111111111111111111111111111111111111111111111111
1100000000000000001111111111111111111111111111111111111111111111111111
1111111111111111010010101111111111111111111111111111111111111111111111
1111111111111111111111111111111111111111111111111111111111111111111111
1111111111111111111111111111111111111111111111111111111111111111111111
1111111111111111111111111111111111111111111111111111111111111111111111
1111111111111111111111111111111111111111111111111111111111111111111111
111111111111111111111111111111