P3
# CREATOR: GIMP PNM Filter Version 1.1
80 80
255
0
2
0
0
2
0
0
2
0
0
2
0
0
2
0
0
2
0
0
2
0
0
2
0
0
2
0
0
2
0
0
2
0
0
2
0
0
2
0
0
2
0
0
2
0
0
2
0
0
2
0
0
2
0
0
2
0
0
2
0
0
2
0
0
2
0
0
2
0
0
2
0
0
2
0
0
2
0
0
2
0
0
2
0
0
2
0
0
2
0
0
2
0
0
2
0
0
2
0
0
2
0
0
2
0
0
2
0
0
2
0
0
2
0
0
2
0
0
2
0
0
2
0
0
2
0
0
2
0
0
2
0
0
2
0
0
2
0
0
2
0
0
2
0
0
2
0
0
2
0
0
2
0
0
2
0
0
2
0
0
2
0
0
2
0
0
2
0
0
2
0
0
2
0
0
2
0
0
2
0
0
2
0
0
2
0
0
2
0
0
2
0
0
2
0
0
2
0
0
2
0
0
2
0
0
2
0
0
2
0
0
2
0
0
2
0
0
2
0
0
2
0
0
2
0
0
2
0
0
2
0
0
2
0
0
2
0
0
2
0
0
2
0
0
2
0
0
2
0
0
2
0
0
2
0
0
2
0
0
2
0
0
2
0
0
2
0
0
2
0
0
2
0
0
2
0
0
2
0
0
2
0
0
2
0
0
2
0
0
2
0
0
2
0
0
2
0
0
2
0
0
2
0
0
2
0
0
2
0
0
2
0
0
2
0
0
2
0
0
2
0
0
2
0
0
2
0
0
2
0
0
2
0
0
2
0
0
2
0
0
2
0
0
2
0
0
2
0
0
2
0
0
2
0
0
2
0
0
2
0
0
2
0
0
2
0
0
2
0
0
2
0
0
2
0
0
2
0
0
2
0
0
2
0
0
2
0
0
2
0
0
2
0
0
2
0
0
2
0
0
2
0
0
2
0
0
2
0
0
2
0
0
2
0
0
2
0
0
2
0
0
2
0
0
2
0
0
2
0
0
2
0
0
2
0
0
2
0
0
2
0
0
2
0
0
2
0
0
2
0
0
2
0
0
2
0
0
2
0
0
2
0
0
2
0
0
2
0
0
2
0
0
2
0
0
2
0
0
2
0
0
2
0
0
2
0
0
2
0
0
2
0
0
2
0
0
2
0
0
2
0
0
2
0
0
2
0
0
2
0
0
2
0
0
2
0
0
2
0
0
2
0
0
2
0
0
2
0
0
2
0
0
2
0
0
2
0
0
2
0
0
2
0
0
2
0
0
2
0
0
2
0
0
2
0
0
2
0
0
2
0
0
2
0
0
2
0
0
2
0
0
2
0
0
2
0
0
2
0
0
2
0
0
2
0
0
2
0
0
2
0
0
2
0
0
2
0
0
2
0
0
2
0
0
2
0
0
2
0
0
2
0
0
2
0
0
2
0
0
2
0
0
2
0
0
2
0
0
2
0
0
2
0
0
2
0
0
2
0
0
2
0
0
2
0
0
2
0
0
2
0
0
2
0
0
2
0
0
2
0
0
2
0
0
2
0
0
2
0
0
2
0
0
2
0
0
2
0
0
2
0
0
2
0
0
2
0
0
2
0
0
2
0
0
2
0
0
2
0
0
2
0
0
2
0
0
2
0
0
2
0
0
2
0
0
2
0
0
2
0
0
2
0
0
2
0
0
2
0
0
2
0
0
2
0
0
2
0
0
2
0
0
2
0
0
2
0
0
2
0
0
2
0
0
2
0
0
2
0
0
2
0
0
2
0
0
2
0
0
2
0
0
2
0
0
2
0
0
2
0
0
2
0
0
2
0
0
2
0
0
2
0
0
2
0
0
2
0
0
2
0
0
21
20
9
87
85
4
138
137
0
171
172
0
208
206
0
235
237
33
236
233
33
236
233
33
236
233
33
236
233
19
232
229
0
208
206
0
173
174
0
136
135
15
90
88
0
27
25
0
2
0
0
2
0
0
2
0
0
2
0
0
2
0
0
2
0
0
2
0
0
2
0
0
2
0
0
2
0
0
2
0
0
2
0
0
2
0
0
2
0
0
2
0
0
2
0
0
2
0
0
2
0
0
2
0
0
2
0
0
2
0
0
2
0
0
2
0
0
2
0
0
2
0
0
2
0
0
2
0
0
2
0
0
2
0
0
2
0
0
2
0
0
2
0
0
2
0
0
2
0
0
2
0
0
2
0
0
2
0
0
2
0
0
2
0
0
2
0
0
2
0
0
2
0
0
2
0
0
2
0
0
2
0
0
2
0
0
2
0
0
2
0
0
2
0
0
2
0
0
2
0
0
2
0
0
2
0
0
2
0
0
2
0
0
2
0
0
2
0
0
2
0
0
2
0
0
2
0
0
14
15
0
53
53
4
138
137
33
220
218
0
254
255
0
254
255
0
254
255
0
254
255
0
254
255
0
254
255
0
254
255
0
254
255
0
254
255
0
254
255
0
254
255
0
254
255
0
254
255
0
254
255
47
253
255
0
254
255
44
225
223
0
159
162
5
72
71
0
21
20
0
5
8
0
2
0
0
2
0
0
2
0
0
2
0
0
2
0
0
2
0
0
2
0
0
2
0
0
2
0
0
2
0
0
2
0
0
2
0
0
2
0
0
2
0
0
2
0
0
2
0
0
2
0
0
2
0
0
2
0
0
2
0
0
2
0
0
2
0
0
2
0
0
2
0
0
2
0
0
2
0
0
2
0
0
2
0
0
2
0
0
2
0
0
2
0
0
2
0
0
2
0
0
2
0
0
2
0
0
2
0
0
2
0
0
2
0
0
2
0
0
2
0
0
2
0
0
2
0
0
2
0
0
2
0
0
2
0
0
2
0
0
2
0
0
2
0
0
2
0
0
2
0
0
2
0
0
2
0
0
2
0
0
50
50
0
117
117
0
208
206
0
254
255
0
254
255
0
254
255
0
254
255
0
254
255
0
254
255
0
254
255
0
254
255
0
254
255
0
254
255
0
254
255
0
254
255
0
254
255
0
254
255
0
254
255
0
254
255
0
254
255
47
253
255
47
253
255
47
253
255
47
253
255
47
253
255
19
232
229
36
151
150
16
78
77
0
21
20
0
2
0
0
2
0
0
2
0
0
2
0
0
2
0
0
2
0
0
2
0
0
2
0
0
2
0
0
2
0
0
2
0
0
2
0
0
2
0
0
2
0
0
2
0
0
2
0
0
2
0
0
2
0
0
2
0
0
2
0
0
2
0
0
2
0
0
2
0
0
2
0
0
2
0
0
2
0
0
2
0
0
2
0
0
2
0
0
2
0
0
2
0
0
2
0
0
2
0
0
2
0
0
2
0
0
2
0
0
2
0
0
2
0
0
2
0
0
2
0
0
2
0
0
2
0
0
2
0
0
2
0
0
2
0
0
2
0
0
2
0
0
2
0
0
2
0
5
59
59
7
164
167
50
228
226
0
254
255
0
254
255
0
254
255
0
254
255
0
254
255
0
254
255
0
254
255
0
254
255
0
254
255
0
254
255
0
254
255
0
254
255
0
254
255
0
254
255
0
254
255
0
254
255
0
254
255
0
254
255
0
254
255
47
253
255
47
253
255
47
253
255
47
253
255
47
253
255
47
253
255
47
253
255
39
249
252
22
200
200
14
112
113
0
5
8
0
2
0
0
2
0
0
2
0
0
2
0
0
2
0
0
2
0
0
2
0
0
2
0
0
2
0
0
2
0
0
2
0
0
2
0
0
2
0
0
2
0
0
2
0
0
2
0
0
2
0
0
2
0
0
2
0
0
2
0
0
2
0
0
2
0
0
2
0
0
2
0
0
2
0
0
2
0
0
2
0
0
2
0
0
2
0
0
2
0
0
2
0
0
2
0
0
2
0
0
2
0
0
2
0
0
2
0
0
2
0
0
2
0
0
2
0
0
2
0
0
2
0
0
2
0
0
2
0
0
2
0
0
2
0
0
21
20
12
155
153
6
241
243
0
254
255
0
254
255
0
254
255
0
254
255
0
254
255
0
254
255
0
254
255
0
254
255
0
254
255
0
254
255
0
254
255
0
254
255
0
254
255
0
254
255
0
254
255
0
254
255
0
254
255
0
254
255
0
254
255
0
254
255
0
254
255
47
253
255
47
253
255
47
253
255
47
253
255
47
253
255
47
253
255
47
253
255
47
253
255
47
253
255
85
250
248
33
220
218
5
72
71
0
2
0
0
2
0
0
2
0
0
2
0
0
2
0
0
2
0
0
2
0
0
2
0
0
2
0
0
2
0
0
2
0
0
2
0
0
2
0
0
2
0
0
2
0
0
2
0
0
2
0
0
2
0
0
2
0
0
2
0
0
2
0
0
2
0
0
2
0
0
2
0
0
2
0
0
2
0
0
2
0
0
2
0
0
2
0
0
2
0
0
2
0
0
2
0
0
2
0
0
2
0
0
2
0
0
2
0
0
2
0
0
2
0
0
2
0
0
2
0
0
2
0
0
2
0
0
5
8
1
69
68
44
225
223
0
254
255
0
254
255
0
254
255
0
254
255
0
251
252
27
245
248
0
235
237
22
200
200
0
159
162
0
106
107
0
67
66
0
48
48
0
33
31
0
27
25
0
21
20
0
27
25
0
35
37
0
53
53
10
74
74
0
114
114
0
167
169
31
203
203
0
235
237
27
245
248
47
253
255
47
253
255
47
253
255
47
253
255
47
253
255
47
253
255
47
253
255
69
255
251
69
255
251
89
254
252
47
253
255
26
146
144
1
17
17
0
2
0
0
2
0
0
2
0
0
2
0
0
2
0
0
2
0
0
2
0
0
2
0
0
2
0
0
2
0
0
2
0
0
2
0
0
2
0
0
2
0
0
2
0
0
2
0
0
2
0
0
2
0
0
2
0
0
2
0
0
2
0
0
2
0
0
2
0
0
2
0
0
2
0
0
2
0
0
2
0
0
2
0
0
2
0
0
2
0
0
2
0
0
2
0
0
2
0
0
2
0
0
2
0
0
2
0
0
2
0
0
2
0
0
2
0
0
27
25
26
146
144
0
254
255
0
254
255
0
254
255
0
254
255
3
229
226
9
181
182
0
129
128
0
67
66
3
18
18
0
2
0
0
2
0
0
2
0
0
2
0
0
2
0
0
2
0
0
2
0
0
2
0
0
2
0
0
2
0
0
2
0
0
2
0
0
2
0
0
2
0
0
2
0
0
21
20
0
67
66
8
124
124
0
177
178
33
220
218
47
253
255
47
253
255
47
253
255
47
253
255
69
255
251
69
255
251
89
254
252
91
255
253
91
255
253
41
193
194
0
50
50
0
2
0
0
2
0
0
2
0
0
2
0
0
2
0
0
2
0
0
2
0
0
2
0
0
2
0
0
2
0
0
2
0
0
2
0
0
2
0
0
2
0
0
2
0
0
2
0
0
2
0
0
2
0
0
2
0
0
2
0
0
2
0
0
2
0
0
2
0
0
2
0
0
2
0
0
2
0
0
2
0
0
2
0
0
2
0
0
2
0
0
2
0
0
2
0
0
2
0
0
2
0
0
2
0
0
2
0
0
2
0
0
50
50
22
200
200
0
254
255
0
254
255
0
254
255
31
203
203
0
114
114
0
50
50
3
10
13
0
2
0
0
2
0
0
2
0
0
2
0
0
2
0
0
2
0
0
2
0
0
2
0
0
2
0
0
2
0
0
2
0
0
2
0
0
2
0
0
2
0
0
2
0
0
2
0
0
2
0
0
2
0
0
2
0
0
2
0
0
2
0
0
5
8
1
42
44
15
90
88
0
171
172
27
245
248
47
253
255
69
255
251
69
255
251
89
254
252
89
254
252
91
255
253
91
255
253
50
228
226
5
85
83
0
2
0
0
2
0
0
2
0
0
2
0
0
2
0
0
2
0
0
2
0
0
2
0
0
2
0
0
2
0
0
2
0
0
2
0
0
2
0
0
2
0
0
2
0
0
2
0
0
2
0
0
2
0
0
2
0
0
2
0
0
2
0
0
2
0
0
2
0
0
2
0
0
2
0
0
2
0
0
2
0
0
2
0
0
2
0
0
2
0
0
2
0
0
2
0
0
2
0
0
2
0
0
2
0
2
57
57
0
235
237
0
254
255
0
254
255
33
220
218
5
85
83
0
14
15
0
2
0
0
2
0
0
2
0
0
2
0
0
2
0
0
2
0
0
2
0
0
2
0
0
2
0
0
2
0
0
2
0
0
2
0
0
2
0
0
2
0
0
2
0
0
2
0
0
2
0
0
2
0
0
2
0
0
2
0
0
2
0
0
2
0
0
2
0
0
2
0
0
2
0
0
2
0
0
2
0
0
5
8
1
35
32
0
132
131
27
245
248
69
255
251
89
254
252
89
254
252
91
255
253
91
255
253
91
255
253
91
242
241
0
99
101
0
2
0
0
2
0
0
2
0
0
2
0
0
2
0
0
2
0
0
2
0
0
2
0
0
2
0
0
2
0
0
2
0
0
2
0
0
2
0
0
2
0
0
2
0
0
2
0
0
2
0
0
2
0
0
2
0
0
2
0
0
2
0
0
2
0
0
2
0
0
2
0
0
2
0
0
2
0
0
2
0
0
2
0
0
2
0
0
2
0
0
2
0
0
2
0
0
2
0
1
69
68
0
251
252
0
254
255
0
235
237
0
120
120
0
2
0
0
2
0
0
2
0
0
2
0
0
2
0
0
2
0
0
2
0
0
2
0
0
2
0
0
2
0
0
2
0
0
2
0
0
2
0
0
2
0
0
2
0
0
2
0
0
2
0
0
2
0
0
2
0
0
2
0
0
2
0
0
2
0
0
2
0
0
2
0
0
2
0
0
2
0
0
2
0
0
2
0
0
2
0
0
2
0
0
2
0
0
2
0
0
2
0
3
29
27
0
171
172
78
246
244
91
255
253
91
255
253
91
255
253
91
255
253
107
255
254
78
246
244
16
78
77
0
2
0
0
2
0
0
2
0
0
2
0
0
2
0
0
2
0
0
2
0
0
2
0
0
2
0
0
2
0
0
2
0
0
2
0
0
2
0
0
2
0
0
2
0
0
2
0
0
2
0
0
2
0
0
2
0
0
2
0
0
2
0
0
2
0
0
2
0
0
2
0
0
2
0
0
2
0
0
2
0
0
2
0
0
2
0
0
2
0
0
2
0
0
80
78
27
245
248
0
251
252
0
173
174
1
42
44
0
2
0
0
2
0
0
2
0
0
2
0
0
2
0
0
2
0
0
2
0
0
2
0
0
2
0
0
2
0
0
2
0
0
2
0
0
2
0
0
2
0
0
2
0
0
2
0
0
2
0
0
2
0
0
2
0
0
2
0
0
2
0
0
2
0
0
2
0
0
2
0
0
2
0
0
2
0
0
2
0
0
2
0
0
2
0
0
2
0
0
2
0
0
2
0
0
2
0
0
2
0
0
2
0
0
2
0
9
87
85
51
213
213
91
255
253
91
255
253
91
255
253
107
255
254
107
255
254
65
237
235
0
53
53
0
2
0
0
2
0
0
2
0
0
2
0
0
2
0
0
2
0
0
2
0
0
2
0
0
2
0
0
2
0
0
2
0
0
2
0
0
2
0
0
2
0
0
2
0
0
2
0
0
2
0
0
2
0
0
2
0
0
2
0
0
2
0
0
2
0
0
2
0
0
2
0
0
2
0
0
2
0
0
2
0
0
2
0
0
2
0
0
67
66
0
237
240
0
237
240
0
97
99
3
10
13
0
2
0
0
2
0
0
2
0
0
2
0
0
2
0
0
2
0
0
2
0
0
2
0
0
2
0
0
2
0
0
2
0
0
2
0
0
2
0
0
2
0
5
25
24
0
67
66
0
106
107
0
136
135
12
155
153
22
158
156
22
158
156
29
162
159
22
158
156
22
158
156
22
158
156
0
149
146
8
124
124
15
90
88
0
48
48
0
2
0
0
2
0
0
2
0
0
2
0
0
2
0
0
2
0
0
2
0
0
2
0
0
2
0
0
35
37
24
170
172
91
255
253
91
255
253
107
255
254
107
255
254
107
255
254
72
227
226
0
27
25
0
2
0
0
2
0
0
2
0
0
2
0
0
2
0
0
2
0
0
2
0
0
2
0
0
2
0
0
2
0
0
2
0
0
2
0
0
2
0
0
2
0
0
2
0
0
2
0
0
2
0
0
2
0
0
2
0
0
2
0
0
2
0
0
2
0
0
2
0
0
2
0
0
2
0
0
2
0
0
2
0
0
27
25
0
235
237
22
216
215
3
45
47
0
2
0
0
2
0
0
2
0
0
2
0
0
2
0
0
2
0
0
2
0
0
2
0
0
2
0
0
2
0
0
2
0
0
2
0
0
2
0
0
55
55
0
149
146
22
216
215
0
237
240
27
245
248
39
249
252
0
251
252
0
254
255
0
254
255
0
254
255
0
254
255
0
254
255
0
254
255
0
254
255
0
254
255
0
251
252
27
245
248
6
241
243
0
235
237
9
181
182
0
99
101
0
14
15
0
2
0
0
2
0
0
2
0
0
2
0
0
2
0
0
2
0
0
14
15
7
164
167
91
255
253
107
255
254
107
255
254
107
255
254
121
255
255
61
205
206
0
2
0
0
2
0
0
2
0
0
2
0
0
2
0
0
2
0
0
2
0
0
2
0
0
2
0
0
2
0
0
2
0
0
2
0
0
2
0
0
2
0
0
2
0
0
2
0
0
2
0
0
2
0
0
2
0
0
2
0
0
2
0
0
2
0
0
2
0
0
2
0
0
2
0
0
2
0
0
5
8
22
200
200
0
210
209
0
35
37
0
2
0
0
2
0
0
2
0
0
2
0
0
2
0
0
2
0
0
2
0
0
2
0
0
2
0
0
2
0
0
5
8
1
35
32
0
136
135
0
235
237
0
254
255
0
254
255
0
254
255
0
254
255
0
254
255
0
254
255
0
254
255
0
254
255
0
254
255
0
254
255
0
254
255
0
254
255
0
254
255
0
254
255
0
254
255
0
254
255
0
254
255
0
254
255
0
254
255
0
254
255
0
254
255
0
254
255
9
181
182
0
67
66
0
14
15
0
2
0
0
2
0
0
2
0
0
2
0
0
2
0
0
175
176
107
255
254
107
255
254
107
255
254
121
255
255
121
255
255
17
127
128
0
2
0
0
2
0
0
2
0
0
2
0
0
2
0
0
2
0
0
2
0
0
2
0
0
2
0
0
2
0
0
2
0
0
2
0
0
2
0
0
2
0
0
2
0
0
2
0
0
2
0
0
2
0
0
2
0
0
2
0
0
2
0
0
2
0
0
2
0
0
2
0
0
2
0
12
155
153
31
203
203
3
29
27
0
2
0
0
2
0
0
2
0
0
2
0
0
2
0
0
2
0
0
2
0
0
2
0
0
2
0
0
21
20
0
80
78
0
175
176
0
254
255
0
254
255
0
254
255
0
254
255
0
254
255
0
254
255
0
254
255
0
254
255
0
254
255
0
254
255
0
254
255
0
254
255
0
254
255
0
254
255
0
254
255
0
254
255
0
254
255
0
254
255
0
254
255
0
254
255
0
254
255
0
254
255
0
254
255
0
254
255
0
254
255
0
254
255
0
254
255
0
208
206
0
106
107
3
29
27
0
2
0
0
2
0
0
2
0
0
2
0
40
168
165
107
255
254
107
255
254
121
255
255
121
255
255
90
227
228
1
42
44
0
2
0
0
2
0
0
2
0
0
2
0
0
2
0
0
2
0
0
2
0
0
2
0
0
2
0
0
2
0
0
2
0
0
2
0
0
2
0
0
2
0
0
2
0
0
2
0
0
2
0
0
2
0
0
2
0
0
2
0
0
2
0
0
2
0
0
2
0
0
101
103
0
171
172
0
21
20
0
2
0
0
2
0
0
2
0
0
2
0
0
2
0
0
2
0
0
2
0
0
2
0
0
2
0
0
99
101
0
194
194
0
254
255
0
254
255
0
254
255
0
254
255
0
254
255
0
254
255
0
254
255
0
254
255
0
254
255
0
254
255
0
254
255
0
254
255
0
254
255
0
254
255
44
225
223
0
194
194
9
181
182
0
173
174
7
164
167
7
164
167
0
175
176
26
186
187
22
200
200
19
232
229
0
254
255
0
254
255
0
254
255
0
254
255
0
254
255
0
254
255
0
254
255
0
208
206
0
114
114
0
2
0
0
2
0
0
2
0
0
14
15
26
186
187
107
255
254
121
255
255
121
255
255
121
255
255
35
137
137
0
5
8
0
2
0
0
2
0
0
2
0
0
2
0
0
2
0
0
2
0
0
2
0
0
2
0
0
2
0
0
2
0
0
2
0
0
2
0
0
2
0
0
2
0
0
2
0
0
2
0
0
2
0
0
2
0
0
2
0
0
2
0
0
2
0
0
33
31
8
124
124
3
18
18
0
2
0
0
2
0
0
2
0
0
2
0
0
2
0
0
2
0
0
2
0
0
2
0
3
29
27
22
200
200
0
251
252
0
254
255
0
254
255
0
254
255
0
254
255
0
254
255
0
254
255
0
254
255
0
254
255
0
254
255
0
254
255
0
254
255
0
194
194
8
124
124
0
53
53
0
21
20
1
17
17
3
10
13
3
10
13
0
5
8
0
5
8
0
5
8
0
5
8
3
10
13
0
14
15
3
18
18
0
27
25
1
69
68
4
138
137
0
208
206
0
254
255
0
254
255
0
254
255
0
254
255
39
249
252
0
189
189
5
25
24
0
2
0
0
2
0
3
45
47
82
220
221
121
255
255
121
255
255
132
253
255
105
253
252
6
20
21
0
2
0
0
2
0
0
2
0
0
2
0
0
2
0
0
2
0
0
2
0
0
2
0
0
2
0
0
2
0
0
2
0
0
2
0
0
2
0
0
2
0
0
2
0
0
2
0
0
2
0
0
2
0
0
2
0
0
2
0
0
2
0
0
35
37
0
21
20
0
2
0
0
2
0
0
2
0
0
2
0
0
2
0
0
2
0
0
2
0
0
5
8
6
109
110
0
254
255
0
254
255
0
254
255
0
254
255
0
254
255
0
254
255
0
254
255
0
254
255
0
254
255
0
251
252
27
245
248
0
194
194
3
93
96
0
5
8
0
2
0
0
2
0
0
2
0
0
2
0
0
2
0
0
5
8
3
18
18
0
27
25
0
50
50
0
14
15
0
2
0
0
2
0
0
2
0
0
2
0
0
2
0
0
2
0
0
2
0
0
2
0
0
14
15
0
106
107
31
203
203
6
241
243
0
254
255
0
254
255
3
229
226
3
45
47
0
2
0
0
2
0
21
115
116
105
253
252
121
255
255
121
255
255
132
253
255
35
137
137
0
2
0
0
2
0
0
2
0
0
2
0
0
2
0
0
2
0
0
2
0
0
2
0
0
2
0
0
2
0
0
2
0
0
2
0
0
2
0
0
2
0
0
2
0
0
2
0
0
2
0
0
2
0
0
2
0
0
2
0
0
2
0
0
2
0
0
2
0
0
2
0
0
2
0
0
2
0
0
2
0
0
2
0
0
2
0
0
35
37
0
177
178
0
254
255
0
254
255
0
254
255
0
254
255
0
254
255
0
254
255
0
254
255
0
254
255
0
254
255
31
203
203
0
132
131
0
35
37
0
2
0
0
2
0
0
2
0
0
2
0
0
2
0
0
14
15
5
59
59
14
112
113
7
164
167
22
158
156
0
120
120
5
25
24
0
2
0
0
2
0
0
2
0
0
2
0
0
2
0
0
2
0
0
2
0
0
2
0
0
2
0
0
2
0
0
2
0
0
2
0
0
53
53
26
146
144
33
220
218
0
254
255
0
251
252
0
80
78
0
2
0
0
2
0
61
205
206
121
255
255
121
255
255
132
253
255
85
250
248
0
2
0
0
2
0
0
2
0
0
2
0
0
2
0
0
2
0
0
2
0
0
2
0
0
2
0
0
2
0
0
2
0
0
2
0
0
2
0
0
2
0
0
2
0
0
2
0
0
2
0
0
2
0
0
2
0
0
2
0
0
2
0
0
2
0
0
2
0
0
2
0
0
2
0
0
2
0
0
2
0
0
2
0
0
63
63
22
216
215
0
254
255
0
254
255
0
254
255
0
254
255
0
254
255
0
254
255
0
254
255
0
254
255
22
200
200
9
87
85
5
25
24
0
2
0
0
2
0
0
2
0
0
2
0
0
2
0
5
25
24
0
117
117
0
194
194
6
241
243
9
181
182
14
76
76
0
14
15
0
2
0
0
2
0
0
2
0
0
2
0
0
2
0
0
2
0
0
2
0
0
2
0
0
2
0
0
2
0
0
2
0
0
2
0
0
2
0
0
2
0
0
2
0
0
2
0
0
35
37
8
124
124
0
251
252
39
249
252
5
85
83
0
2
0
0
39
41
107
255
254
132
253
255
132
253
255
132
253
255
0
80
78
0
2
0
0
2
0
0
2
0
0
2
0
0
2
0
0
2
0
0
2
0
0
2
0
0
2
0
0
2
0
0
2
0
0
2
0
0
2
0
0
2
0
0
2
0
0
2
0
0
2
0
0
2
0
0
2
0
0
2
0
0
2
0
0
2
0
0
2
0
0
2
0
0
2
0
0
2
0
9
87
85
39
249
252
0
254
255
0
254
255
0
254
255
0
254
255
0
254
255
0
254
255
0
254
255
0
251
252
0
97
99
0
14
15
0
2
0
0
2
0
0
2
0
0
2
0
0
2
0
0
5
8
0
132
131
50
228
226
0
254
255
0
235
237
10
74
74
0
5
8
0
2
0
0
2
0
0
2
0
0
2
0
0
2
0
0
2
0
0
2
0
0
2
0
0
2
0
0
2
0
0
2
0
0
2
0
0
2
0
0
2
0
0
2
0
0
2
0
0
2
0
0
2
0
0
2
0
0
2
0
0
27
25
0
189
189
0
235
237
3
45
47
0
2
0
40
154
152
132
253
255
132
253
255
151
254
251
24
170
172
0
2
0
0
2
0
0
2
0
0
2
0
0
2
0
0
2
0
0
2
0
0
2
0
0
2
0
0
2
0
0
2
0
0
2
0
0
2
0
0
2
0
0
2
0
0
2
0
0
2
0
0
2
0
0
2
0
0
2
0
0
2
0
0
2
0
0
2
0
0
2
0
0
2
0
3
93
96
0
251
252
0
254
255
0
254
255
0
254
255
0
254
255
0
254
255
0
254
255
0
251
252
9
181
182
0
14
15
0
2
0
0
2
0
0
2
0
0
2
0
0
2
0
0
5
8
5
85
83
19
232
229
47
253
255
0
254
255
22
158
156
0
2
0
0
2
0
0
2
0
0
2
0
0
2
0
0
2
0
0
2
0
0
2
0
0
2
0
0
2
0
0
2
0
0
2
0
0
2
0
0
2
0
0
2
0
0
2
0
0
2
0
0
2
0
0
2
0
0
2
0
0
2
0
0
2
0
0
2
0
0
2
0
0
2
0
17
127
128
0
162
165
0
5
8
9
27
26
107
255
254
132
253
255
145
254
255
86
238
237
0
2
0
0
2
0
0
2
0
0
2
0
0
2
0
0
2
0
0
2
0
0
2
0
0
2
0
0
2
0
0
2
0
0
2
0
0
2
0
0
2
0
0
2
0
0
2
0
0
2
0
0
2
0
0
2
0
0
2
0
0
2
0
0
2
0
0
2
0
0
2
0
0
80
78
6
241
243
47
253
255
0
254
255
0
254
255
0
254
255
0
254
255
0
254
255
3
229
226
0
106
107
0
2
0
0
2
0
0
2
0
0
2
0
0
2
0
0
2
0
0
50
50
0
173
174
0
254
255
47
253
255
33
220
218
9
87
85
0
2
0
0
2
0
0
2
0
0
2
0
0
2
0
0
2
0
0
2
0
0
2
0
0
2
0
0
2
0
0
2
0
0
2
0
0
2
0
0
2
0
0
2
0
0
2
0
0
2
0
0
2
0
0
2
0
0
2
0
0
2
0
0
2
0
0
2
0
0
2
0
0
2
0
0
2
0
0
2
0
0
94
96
0
35
37
0
5
8
66
173
172
132
253
255
132
253
255
103
238
239
0
35
37
0
2
0
0
2
0
0
2
0
0
2
0
0
2
0
0
2
0
0
2
0
0
2
0
0
2
0
0
2
0
0
2
0
0
2
0
0
2
0
0
2
0
0
2
0
0
2
0
0
2
0
0
2
0
0
2
0
0
2
0
0
2
0
0
2
0
1
42
44
50
228
226
47
253
255
47
253
255
0
254
255
0
254
255
0
254
255
0
254
255
0
208
206
0
53
53
0
2
0
0
2
0
0
2
0
0
2
0
0
2
0
0
2
0
0
106
107
50
228
226
47
253
255
47
253
255
0
194
194
0
45
46
0
2
0
0
2
0
0
2
0
0
2
0
0
2
0
0
2
0
0
2
0
0
2
0
0
2
0
0
2
0
0
2
0
0
2
0
0
2
0
0
2
0
0
2
0
0
2
0
0
2
0
0
2
0
0
2
0
0
2
0
0
2
0
0
2
0
0
2
0
0
2
0
0
2
0
0
2
0
0
2
0
0
2
0
0
2
0
0
14
15
0
2
0
27
98
96
121
255
255
132
253
255
123
244
246
1
69
68
0
2
0
0
2
0
0
2
0
0
2
0
0
2
0
0
2
0
0
2
0
0
2
0
0
2
0
0
2
0
0
2
0
0
2
0
0
2
0
0
2
0
0
2
0
0
2
0
0
2
0
0
2
0
0
2
0
0
2
0
0
2
0
0
5
8
33
220
218
47
253
255
47
253
255
47
253
255
0
254
255
0
254
255
0
254
255
0
187
187
0
14
15
0
2
0
0
2
0
0
2
0
0
2
0
0
2
0
0
2
0
7
164
167
39
249
252
47
253
255
47
253
255
0
171
172
0
14
15
0
2
0
0
2
0
0
2
0
0
2
0
0
2
0
0
2
0
0
2
0
0
2
0
0
2
0
0
2
0
0
2
0
0
2
0
0
2
0
0
2
0
0
2
0
0
2
0
0
2
0
0
2
0
0
2
0
0
2
0
0
2
0
0
2
0
0
2
0
0
2
0
0
2
0
0
2
0
0
2
0
0
2
0
0
2
0
0
2
0
0
2
0
0
2
0
8
49
51
106
228
230
132
253
255
139
243
240
5
85
83
0
2
0
0
2
0
0
2
0
0
2
0
0
2
0
0
2
0
0
2
0
0
2
0
0
2
0
0
2
0
0
2
0
0
2
0
0
2
0
0
2
0
0
2
0
0
2
0
0
2
0
0
2
0
0
2
0
0
2
0
0
2
0
7
164
167
69
255
251
47
253
255
47
253
255
47
253
255
0
254
255
0
254
255
0
175
176
0
5
8
0
2
0
0
2
0
0
2
0
0
2
0
0
2
0
3
18
18
0
177
178
47
253
255
47
253
255
47
253
255
0
167
169
0
5
8
0
2
0
0
2
0
0
2
0
0
2
0
0
2
0
0
2
0
0
2
0
0
2
0
0
2
0
0
2
0
0
2
0
0
2
0
0
2
0
0
2
0
0
2
0
0
2
0
0
2
0
0
2
0
0
2
0
0
2
0
0
2
0
0
2
0
0
2
0
0
2
0
0
2
0
0
2
0
0
2
0
0
2
0
0
2
0
0
2
0
0
2
0
0
2
0
0
2
0
1
17
17
90
195
193
132
253
255
144
248
245
0
106
107
0
2
0
0
2
0
0
2
0
0
2
0
0
2
0
0
2
0
0
2
0
0
2
0
0
2
0
0
2
0
0
2
0
0
2
0
0
2
0
0
2
0
0
2
0
0
2
0
0
2
0
0
2
0
0
2
0
0
2
0
3
93
96
63
250
247
47
253
255
47
253
255
47
253
255
47
253
255
0
254
255
9
181
182
0
21
20
0
2
0
0
2
0
0
2
0
0
2
0
0
2
0
0
21
20
0
175
176
47
253
255
47
253
255
47
253
255
0
175
176
0
14
15
0
2
0
0
2
0
0
2
0
0
2
0
0
2
0
0
2
0
0
2
0
0
2
0
0
2
0
0
2
0
0
2
0
0
2
0
0
2
0
0
2
0
0
2
0
0
2
0
0
2
0
0
2
0
0
2
0
0
2
0
0
2
0
0
2
0
0
2
0
0
2
0
0
2
0
0
2
0
0
2
0
0
2
0
0
2
0
0
2
0
0
2
0
0
2
0
0
2
0
0
2
0
0
2
0
55
165
163
132
253
255
144
248
245
6
109
110
0
2
0
0
2
0
0
2
0
0
2
0
0
2
0
0
2
0
0
2
0
0
2
0
0
2
0
0
2
0
0
2
0
0
2
0
0
2
0
0
2
0
0
2
0
0
2
0
0
2
0
0
2
0
0
2
0
3
29
27
45
209
209
89
254
252
47
253
255
47
253
255
47
253
255
47
253
255
0
208
206
0
27
25
0
2
0
0
2
0
0
2
0
0
2
0
0
2
0
0
2
0
9
181
182
47
253
255
47
253
255
47
253
255
31
203
203
0
21
20
0
2
0
0
2
0
0
2
0
0
2
0
0
2
0
0
2
0
0
2
0
0
2
0
0
2
0
0
2
0
0
2
0
0
2
0
0
2
0
0
2
0
0
2
0
0
2
0
0
2
0
0
2
0
0
2
0
0
2
0
0
2
0
0
2
0
0
2
0
0
2
0
0
2
0
0
2
0
0
2
0
0
2
0
0
2
0
0
2
0
0
2
0
0
2
0
0
2
0
0
2
0
0
2
0
0
2
0
27
119
120
128
249
251
144
248
245
6
109
110
0
2
0
0
2
0
0
2
0
0
2
0
0
2
0
0
2
0
0
2
0
0
2
0
0
2
0
0
2
0
0
2
0
0
2
0
0
2
0
0
2
0
0
2
0
0
2
0
0
2
0
0
2
0
0
2
0
0
117
117
91
255
253
89
254
252
47
253
255
47
253
255
47
253
255
27
245
248
0
35
37
0
2
0
0
2
0
0
2
0
0
2
0
0
2
0
0
2
0
26
186
187
47
253
255
47
253
255
47
253
255
27
245
248
0
21
20
0
2
0
0
2
0
0
2
0
0
2
0
0
2
0
0
2
0
0
2
0
0
2
0
0
2
0
0
2
0
0
2
0
0
2
0
0
2
0
0
2
0
0
2
0
0
2
0
0
2
0
0
2
0
0
2
0
0
2
0
0
2
0
0
2
0
0
2
0
0
2
0
0
2
0
0
2
0
0
2
0
0
2
0
0
2
0
0
2
0
0
2
0
0
2
0
0
2
0
0
2
0
0
2
0
0
2
0
0
2
0
15
90
88
123
244
246
144
248
245
27
98
96
0
2
0
0
2
0
0
2
0
0
2
0
0
2
0
0
2
0
0
2
0
0
2
0
0
2
0
0
2
0
0
2
0
0
2
0
0
2
0
0
2
0
0
2
0
0
2
0
0
2
0
0
2
0
5
25
24
50
228
226
91
255
253
89
254
252
47
253
255
47
253
255
0
254
255
10
74
74
0
2
0
0
2
0
0
2
0
0
2
0
0
2
0
0
2
0
0
136
135
47
253
255
47
253
255
47
253
255
47
253
255
0
67
66
0
2
0
0
2
0
0
2
0
0
2
0
0
2
0
0
2
0
0
2
0
0
2
0
0
2
0
0
2
0
0
2
0
0
2
0
0
2
0
0
2
0
0
2
0
0
2
0
0
2
0
0
2
0
0
2
0
0
2
0
0
2
0
0
2
0
0
2
0
0
2
0
0
2
0
0
2
0
0
2
0
0
2
0
0
2
0
0
2
0
0
2
0
0
2
0
0
2
0
0
2
0
0
2
0
0
2
0
0
2
0
0
2
0
0
80
78
123
244
246
139
243
240
16
78
77
0
2
0
0
2
0
0
2
0
0
2
0
0
2
0
0
2
0
0
2
0
0
2
0
0
2
0
0
2
0
0
2
0
0
2
0
0
2
0
0
2
0
0
2
0
0
2
0
0
2
0
0
2
0
14
112
113
107
255
254
91
255
253
89
254
252
47
253
255
47
253
255
0
149
146
0
2
0
0
2
0
0
2
0
0
2
0
0
2
0
0
2
0
5
72
71
46
242
238
47
253
255
69
255
251
47
253
255
18
142
141
0
2
0
0
2
0
0
2
0
0
2
0
0
2
0
0
2
0
0
2
0
0
2
0
0
2
0
0
2
0
0
2
0
0
2
0
0
2
0
0
2
0
0
2
0
0
2
0
0
2
0
0
2
0
0
2
0
0
2
0
0
2
0
0
2
0
0
2
0
0
2
0
0
2
0
0
2
0
0
2
0
0
2
0
0
2
0
0
2
0
0
2
0
0
2
0
0
2
0
0
2
0
0
2
0
0
2
0
0
2
0
0
2
0
0
2
0
2
57
57
123
244
246
123
244
246
0
63
63
0
2
0
0
2
0
0
2
0
0
2
0
0
2
0
0
2
0
0
2
0
0
2
0
0
2
0
0
2
0
0
2
0
0
2
0
0
2
0
0
2
0
0
2
0
0
2
0
0
2
0
0
2
0
71
241
239
107
255
254
91
255
253
89
254
252
47
253
255
33
220
218
0
38
40
0
2
0
0
2
0
0
2
0
0
2
0
0
2
0
0
14
15
22
216
215
47
253
255
69
255
251
47
253
255
61
219
219
0
33
31
0
2
0
0
2
0
0
2
0
0
2
0
0
2
0
0
2
0
0
2
0
0
2
0
0
2
0
0
2
0
0
2
0
0
2
0
0
2
0
0
2
0
0
2
0
0
2
0
0
2
0
0
2
0
0
2
0
0
2
0
0
2
0
0
2
0
0
2
0
0
2
0
0
2
0
0
2
0
0
2
0
0
2
0
0
2
0
0
2
0
0
2
0
0
2
0
0
2
0
0
2
0
0
2
0
0
2
0
0
2
0
0
2
0
0
2
0
0
48
48
139
243
240
103
238
239
0
21
20
0
2
0
0
2
0
0
2
0
0
2
0
0
2
0
0
2
0
0
2
0
0
2
0
0
2
0
0
2
0
0
2
0
0
2
0
0
2
0
0
2
0
0
2
0
0
2
0
0
2
0
0
97
99
121
255
255
107
255
254
91
255
253
89
254
252
63
250
247
0
117
117
0
2
0
0
2
0
0
2
0
0
2
0
0
2
0
0
2
0
0
136
135
69
255
251
69
255
251
69
255
251
85
250
248
8
124
124
0
14
15
0
2
0
0
2
0
0
2
0
0
2
0
0
2
0
0
2
0
0
2
0
0
2
0
0
2
0
0
2
0
0
2
0
0
2
0
0
2
0
0
2
0
0
2
0
0
2
0
0
2
0
0
2
0
0
2
0
0
2
0
0
2
0
0
2
0
0
2
0
0
2
0
0
2
0
0
2
0
0
2
0
0
2
0
0
2
0
0
2
0
0
2
0
0
2
0
0
2
0
0
2
0
0
2
0
0
2
0
0
2
0
0
2
0
0
2
0
0
55
55
139
243
240
54
230
228
0
2
0
0
2
0
0
2
0
0
2
0
0
2
0
0
2
0
0
2
0
0
2
0
0
2
0
0
2
0
0
2
0
0
2
0
0
2
0
0
2
0
0
2
0
0
2
0
0
2
0
0
2
0
41
193
194
121
255
255
107
255
254
91
255
253
91
255
253
22
216
215
0
2
0
0
2
0
0
2
0
0
2
0
0
2
0
0
2
0
0
33
31
47
253
255
89
254
252
89
254
252
89
254
252
54
230
228
0
14
15
0
97
99
0
14
15
0
2
0
0
2
0
0
2
0
0
2
0
0
2
0
0
2
0
0
2
0
0
2
0
0
2
0
0
2
0
0
2
0
0
2
0
0
2
0
0
2
0
0
2
0
0
2
0
0
2
0
0
2
0
0
2
0
0
2
0
0
2
0
0
2
0
0
2
0
0
2
0
0
2
0
0
2
0
0
2
0
0
2
0
0
2
0
0
2
0
0
2
0
0
2
0
0
2
0
0
2
0
0
2
0
0
2
0
0
2
0
0
2
0
10
74
74
128
249
251
35
165
162
0
2
0
0
2
0
0
2
0
0
2
0
0
2
0
0
2
0
0
2
0
0
2
0
0
2
0
0
2
0
0
2
0
0
2
0
0
2
0
0
2
0
0
2
0
0
2
0
0
2
0
3
29
27
110
245
245
121
255
255
107
255
254
91
255
253
47
253
255
5
85
83
0
2
0
0
2
0
0
2
0
0
2
0
0
2
0
0
2
0
0
189
189
91
255
253
89
254
252
89
254
252
91
255
253
0
120
120
0
14
15
28
133
133
3
10
13
0
2
0
0
2
0
0
2
0
0
2
0
0
2
0
0
2
0
0
2
0
0
2
0
0
2
0
0
2
0
0
2
0
0
2
0
0
2
0
0
2
0
0
2
0
0
2
0
0
2
0
0
2
0
0
2
0
0
2
0
0
2
0
0
2
0
0
2
0
0
2
0
0
2
0
0
2
0
0
2
0
0
2
0
0
2
0
0
2
0
0
2
0
0
2
0
0
2
0
0
2
0
0
2
0
0
2
0
0
2
0
0
2
0
9
87
85
132
253
255
15
90
88
0
2
0
0
2
0
0
2
0
0
2
0
0
2
0
0
2
0
0
2
0
0
2
0
0
2
0
0
2
0
0
2
0
0
2
0
0
2
0
0
2
0
0
2
0
0
2
0
0
2
0
18
92
90
123
244
246
121
255
255
107
255
254
91
255
253
22
216
215
0
2
0
0
2
0
0
2
0
0
2
0
0
2
0
0
2
0
5
59
59
78
246
244
89
254
252
89
254
252
91
255
253
47
253
255
0
5
8
0
38
40
33
188
190
3
18
18
0
2
0
0
2
0
0
2
0
0
2
0
0
2
0
0
2
0
0
2
0
0
2
0
0
2
0
0
2
0
0
2
0
0
2
0
0
2
0
0
2
0
0
2
0
0
2
0
0
2
0
0
2
0
0
2
0
0
2
0
0
2
0
0
2
0
0
2
0
0
2
0
0
2
0
0
2
0
0
2
0
0
2
0
0
2
0
0
2
0
0
2
0
0
2
0
0
2
0
0
2
0
0
2
0
0
2
0
0
2
0
0
2
0
41
109
107
91
255
253
0
5
8
0
2
0
0
2
0
0
2
0
0
2
0
0
2
0
0
2
0
0
2
0
0
2
0
0
2
0
0
2
0
0
2
0
0
2
0
0
2
0
0
2
0
0
2
0
0
2
0
0
2
0
40
154
152
121
255
255
121
255
255
107
255
254
91
255
253
20
93
91
0
2
0
0
2
0
0
2
0
0
2
0
0
2
0
0
2
0
12
155
153
89
254
252
89
254
252
89
254
252
91
255
253
29
162
159
0
2
0
1
42
44
65
237
235
6
20
21
0
2
0
0
2
0
0
2
0
0
2
0
0
2
0
0
2
0
0
2
0
0
2
0
0
2
0
0
2
0
0
2
0
0
2
0
0
2
0
0
2
0
0
2
0
0
2
0
0
2
0
0
2
0
0
2
0
0
2
0
0
2
0
0
2
0
0
2
0
0
2
0
0
2
0
0
2
0
0
2
0
0
2
0
0
2
0
0
2
0
0
2
0
0
2
0
0
2
0
0
2
0
0
2
0
0
2
0
0
2
0
0
2
0
60
169
167
45
180
182
0
2
0
0
2
0
0
2
0
0
2
0
0
2
0
0
2
0
0
2
0
0
2
0
0
2
0
0
2
0
0
2
0
0
2
0
0
2
0
0
2
0
0
2
0
0
2
0
0
2
0
0
2
0
84
178
177
132
253
255
121
255
255
107
255
254
54
246
242
3
18
18
0
2
0
0
2
0
0
2
0
0
2
0
0
2
0
3
29
27
45
209
209
91
255
253
89
254
252
89
254
252
91
255
253
8
49
51
0
2
0
1
42
44
103
238
239
5
59
59
0
2
0
0
2
0
0
2
0
0
2
0
0
2
0
0
2
0
0
2
0
0
2
0
0
2
0
0
2
0
0
2
0
0
2
0
0
2
0
0
2
0
0
2
0
0
2
0
0
2
0
0
2
0
0
2
0
0
2
0
0
2
0
0
2
0
0
2
0
0
2
0
0
2
0
0
2
0
0
2
0
0
2
0
0
2
0
0
2
0
0
2
0
0
2
0
0
2
0
0
2
0
0
2
0
0
2
0
0
2
0
0
5
8
77
196
193
0
82
80
0
2
0
0
2
0
0
2
0
0
2
0
0
2
0
0
2
0
0
2
0
0
2
0
0
2
0
0
2
0
0
2
0
0
2
0
0
2
0
0
2
0
0
2
0
0
2
0
0
2
0
0
27
25
100
204
202
132
253
255
121
255
255
107
255
254
29
172
174
0
5
8
0
2
0
0
2
0
0
2
0
0
2
0
0
2
0
5
72
71
63
250
247
91
255
253
91
255
253
91
255
253
60
233
231
0
14
15
0
2
0
1
42
44
109
231
234
28
133
133
0
2
0
0
2
0
0
2
0
0
2
0
0
2
0
0
2
0
0
2
0
0
2
0
0
2
0
0
2
0
0
2
0
0
2
0
0
2
0
0
2
0
0
2
0
0
2
0
0
2
0
0
2
0
0
2
0
0
2
0
0
2
0
0
2
0
0
2
0
0
2
0
0
2
0
0
2
0
0
2
0
0
2
0
0
2
0
0
2
0
0
2
0
0
2
0
0
2
0
0
2
0
0
2
0
0
2
0
0
2
0
3
45
47
50
197
199
3
10
13
0
2
0
0
2
0
0
2
0
0
2
0
0
2
0
0
2
0
0
2
0
0
2
0
0
2
0
0
2
0
0
2
0
0
2
0
0
2
0
0
2
0
0
2
0
0
2
0
0
2
0
1
42
44
97
220
223
132
253
255
121
255
255
91
255
253
0
106
107
0
2
0
0
2
0
0
2
0
0
2
0
0
2
0
0
2
0
8
124
124
91
255
253
91
255
253
91
255
253
91
255
253
39
176
179
0
5
8
0
2
0
1
42
44
101
224
226
50
197
199
0
2
0
0
2
0
0
2
0
0
2
0
0
2
0
0
2
0
0
2
0
0
2
0
0
2
0
0
2
0
0
2
0
0
2
0
0
2
0
0
2
0
0
2
0
0
2
0
0
2
0
0
2
0
0
2
0
0
2
0
0
2
0
0
2
0
0
2
0
0
2
0
0
2
0
0
2
0
0
2
0
0
2
0
0
2
0
0
2
0
0
2
0
0
2
0
0
2
0
0
2
0
0
2
0
0
2
0
0
2
0
9
87
85
8
124
124
0
2
0
0
2
0
0
2
0
0
2
0
0
2
0
0
2
0
0
2
0
0
2
0
0
2
0
0
2
0
0
2
0
0
2
0
0
2
0
0
2
0
0
2
0
0
48
48
0
5
8
0
2
0
21
45
44
118
222
220
132
253
255
121
255
255
78
246
244
0
67
66
0
2
0
0
2
0
0
2
0
0
2
0
0
2
0
3
10
13
9
181
182
91
255
253
91
255
253
91
255
253
91
255
253
27
119
120
0
2
0
0
2
0
5
30
28
105
209
207
107
255
254
0
2
0
0
2
0
0
2
0
0
2
0
0
2
0
0
2
0
0
2
0
0
2
0
0
2
0
0
2
0
0
2
0
0
2
0
0
2
0
0
2
0
0
2
0
0
2
0
0
2
0
0
2
0
0
2
0
0
2
0
0
2
0
0
2
0
0
2
0
0
2
0
0
2
0
0
2
0
0
2
0
0
2
0
0
2
0
0
2
0
0
2
0
0
2
0
0
2
0
0
2
0
0
2
0
0
2
0
0
5
8
0
120
120
9
62
62
0
2
0
0
2
0
0
2
0
0
2
0
0
2
0
0
2
0
0
2
0
0
2
0
0
2
0
0
2
0
0
2
0
0
2
0
0
2
0
0
2
0
0
2
0
14
112
113
0
14
15
0
2
0
28
45
44
118
222
220
132
253
255
121
255
255
61
219
219
1
42
44
0
2
0
0
2
0
0
2
0
0
2
0
0
2
0
1
17
17
50
228
226
91
255
253
91
255
253
91
255
253
91
255
253
20
93
91
0
2
0
0
2
0
0
14
15
95
188
188
151
254
251
15
90
88
0
2
0
0
2
0
0
2
0
0
2
0
0
2
0
0
2
0
0
2
0
0
2
0
0
2
0
0
2
0
0
2
0
0
2
0
0
2
0
0
2
0
0
2
0
0
2
0
0
2
0
0
2
0
0
2
0
0
2
0
0
2
0
0
2
0
0
2
0
0
2
0
0
2
0
0
2
0
0
2
0
0
2
0
0
2
0
0
2
0
0
2
0
0
2
0
0
2
0
0
2
0
0
2
0
3
18
18
0
132
131
0
2
0
0
2
0
0
2
0
0
2
0
0
2
0
0
2
0
0
2
0
0
2
0
0
2
0
0
2
0
0
2
0
0
2
0
0
2
0
0
2
0
0
2
0
3
37
35
0
136
135
3
10
13
0
2
0
28
45
44
118
222
220
132
253
255
121
255
255
50
197
199
0
21
20
0
2
0
0
2
0
0
2
0
0
2
0
0
2
0
5
25
24
47
253
255
91
255
253
91
255
253
91
255
253
85
250
248
16
78
77
0
2
0
0
2
0
0
2
0
80
174
174
151
254
251
50
183
186
0
2
0
0
2
0
0
2
0
0
2
0
0
2
0
0
2
0
0
2
0
0
2
0
0
2
0
0
2
0
0
2
0
0
2
0
0
2
0
0
2
0
0
2
0
0
2
0
0
2
0
0
2
0
0
2
0
0
2
0
0
2
0
0
2
0
0
2
0
0
2
0
0
2
0
0
2
0
0
2
0
0
2
0
0
2
0
0
2
0
0
2
0
0
2
0
0
2
0
0
2
0
0
2
0
0
63
63
0
67
66
0
2
0
0
2
0
0
2
0
0
2
0
0
2
0
0
2
0
0
2
0
0
2
0
0
2
0
0
2
0
0
2
0
0
2
0
0
2
0
0
2
0
0
2
0
21
115
116
27
119
120
0
2
0
0
2
0
21
45
44
118
222
220
132
253
255
121
255
255
45
180
182
0
2
0
0
2
0
0
2
0
0
2
0
0
2
0
0
2
0
0
55
55
69
255
251
91
255
253
91
255
253
91
255
253
86
238
237
5
59
59
0
2
0
0
2
0
0
2
0
53
150
150
151
254
251
110
245
245
0
33
31
0
2
0
0
2
0
0
2
0
0
2
0
0
2
0
0
2
0
0
2
0
0
2
0
0
2
0
0
2
0
0
2
0
0
2
0
0
2
0
0
2
0
0
2
0
0
2
0
0
2
0
0
2
0
0
2
0
0
2
0
0
2
0
0
2
0
0
2
0
0
2
0
0
2
0
0
2
0
0
2
0
0
2
0
0
2
0
0
2
0
0
2
0
0
2
0
0
2
0
0
2
0
0
82
80
0
2
0
0
2
0
0
2
0
0
2
0
0
2
0
0
2
0
0
2
0
0
2
0
0
2
0
0
2
0
0
2
0
0
2
0
0
2
0
0
2
0
0
2
0
0
14
15
51
213
213
17
67
67
0
2
0
0
2
0
10
44
41
118
222
220
132
253
255
107
255
254
24
170
172
0
2
0
0
2
0
0
2
0
0
2
0
0
2
0
0
2
0
0
80
78
91
255
253
107
255
254
91
255
253
91
255
253
72
227
226
10
51
53
0
2
0
0
2
0
0
2
0
27
98
96
144
248
245
145
254
255
28
133
133
0
2
0
0
2
0
0
2
0
0
2
0
0
2
0
0
2
0
0
2
0
0
2
0
0
2
0
0
2
0
0
2
0
0
2
0
0
2
0
0
2
0
0
2
0
0
2
0
0
2
0
0
2
0
0
2
0
0
2
0
0
2
0
0
2
0
0
2
0
0
2
0
0
2
0
0
2
0
0
2
0
0
2
0
0
2
0
0
2
0
0
2
0
0
2
0
0
2
0
0
14
15
0
5
8
0
2
0
0
2
0
0
2
0
0
2
0
0
2
0
0
2
0
0
2
0
0
2
0
0
2
0
0
2
0
0
2
0
0
2
0
0
2
0
0
2
0
0
2
0
40
154
152
100
204
202
0
14
15
0
2
0
0
2
0
1
42
44
97
220
223
132
253
255
107
255
254
29
162
159
0
2
0
0
2
0
0
2
0
0
2
0
0
2
0
0
2
0
0
97
99
91
255
253
107
255
254
107
255
254
107
255
254
90
227
228
8
49
51
0
2
0
0
2
0
0
2
0
0
50
50
139
243
240
151
254
251
85
210
212
3
29
27
0
2
0
0
2
0
0
2
0
0
2
0
0
2
0
0
2
0
0
2
0
0
2
0
0
2
0
0
2
0
0
2
0
0
2
0
0
2
0
0
2
0
0
2
0
0
2
0
0
2
0
0
2
0
0
2
0
0
2
0
0
2
0
0
2
0
0
2
0
0
2
0
0
2
0
0
2
0
0
2
0
0
2
0
0
2
0
0
2
0
0
2
0
0
2
0
0
2
0
0
2
0
0
2
0
0
2
0
0
2
0
0
2
0
0
2
0
0
2
0
0
2
0
0
2
0
0
2
0
0
2
0
0
2
0
0
2
0
0
2
0
0
2
0
5
72
71
121
255
255
34
123
125
0
2
0
0
2
0
0
2
0
0
21
20
90
195
193
132
253
255
107
255
254
40
154
152
0
2
0
0
2
0
0
2
0
0
2
0
0
2
0
0
2
0
0
99
101
107
255
254
107
255
254
107
255
254
107
255
254
90
227
228
10
51
53
0
2
0
0
2
0
0
2
0
0
2
0
82
220
221
151
254
251
132
253
255
14
112
113
0
2
0
0
2
0
0
2
0
0
2
0
0
2
0
0
2
0
0
2
0
0
2
0
0
2
0
0
2
0
0
2
0
0
2
0
0
2
0
0
2
0
0
2
0
0
2
0
0
2
0
0
2
0
0
2
0
0
2
0
0
2
0
0
2
0
0
2
0
0
2
0
0
2
0
0
2
0
0
2
0
0
2
0
0
2
0
0
2
0
0
2
0
0
2
0
0
2
0
0
2
0
0
2
0
0
2
0
0
2
0
0
2
0
0
2
0
0
2
0
0
2
0
0
2
0
0
2
0
0
2
0
0
2
0
0
2
0
0
2
0
0
35
37
97
233
234
109
231
234
0
27
25
0
2
0
0
2
0
0
2
0
0
2
0
72
179
177
121
255
255
107
255
254
29
162
159
0
2
0
0
2
0
0
2
0
0
2
0
0
2
0
0
2
0
7
95
98
107
255
254
107
255
254
107
255
254
107
255
254
91
242
241
17
67
67
0
2
0
0
2
0
0
2
0
0
2
0
0
136
135
162
255
254
151
254
251
86
238
237
5
30
28
0
2
0
0
2
0
0
2
0
0
2
0
0
2
0
0
2
0
0
2
0
0
2
0
0
2
0
0
2
0
0
2
0
0
2
0
0
2
0
0
2
0
0
2
0
0
2
0
0
2
0
0
2
0
0
2
0
0
2
0
0
2
0
0
2
0
0
2
0
0
2
0
0
2
0
0
2
0
0
2
0
0
2
0
0
2
0
0
2
0
0
2
0
0
2
0
0
2
0
0
2
0
0
2
0
0
2
0
0
2
0
0
2
0
0
2
0
0
2
0
0
2
0
0
2
0
0
2
0
0
2
0
0
2
0
1
17
17
56
187
190
151
254
251
0
120
120
0
2
0
0
2
0
0
2
0
0
2
0
0
2
0
42
129
131
121
255
255
107
255
254
40
168
165
0
2
0
0
2
0
0
2
0
0
2
0
0
2
0
0
2
0
16
78
77
91
255
253
107
255
254
107
255
254
107
255
254
91
255
253
25
85
84
0
2
0
0
2
0
0
2
0
0
2
0
5
25
24
107
255
254
151
254
251
151
254
251
45
209
209
0
2
0
0
2
0
0
2
0
0
2
0
0
2
0
0
2
0
0
2
0
0
2
0
0
2
0
0
2
0
0
2
0
0
2
0
0
2
0
0
2
0
0
2
0
0
2
0
0
2
0
0
2
0
0
2
0
0
2
0
0
2
0
0
2
0
0
2
0
0
2
0
0
2
0
0
2
0
0
2
0
0
2
0
0
2
0
0
2
0
0
2
0
0
2
0
0
2
0
0
2
0
0
2
0
0
2
0
0
2
0
0
2
0
0
2
0
0
2
0
0
2
0
0
2
0
0
2
0
0
2
0
0
2
0
45
157
156
151
254
251
61
219
219
0
2
0
0
2
0
0
2
0
0
2
0
0
2
0
0
2
0
0
80
78
110
245
245
121
255
255
39
176
179
0
2
0
0
2
0
0
2
0
0
2
0
0
2
0
0
2
0
0
50
50
91
255
253
107
255
254
107
255
254
107
255
254
107
255
254
27
98
96
0
2
0
0
2
0
0
2
0
0
2
0
0
2
0
44
171
168
162
255
254
151
254
251
151
254
251
12
155
153
0
2
0
0
2
0
0
2
0
0
2
0
0
2
0
0
2
0
0
2
0
0
2
0
0
2
0
0
2
0
0
2
0
0
2
0
0
2
0
0
2
0
0
2
0
0
2
0
0
2
0
0
2
0
0
2
0
0
2
0
0
2
0
0
2
0
0
2
0
0
2
0
0
2
0
0
2
0
0
2
0
0
2
0
0
2
0
0
2
0
0
2
0
0
2
0
0
2
0
0
2
0
0
2
0
0
2
0
0
2
0
0
2
0
0
2
0
0
2
0
0
2
0
0
2
0
0
2
0
18
142
141
132
253
255
121
255
255
2
57
57
0
2
0
0
2
0
0
2
0
0
2
0
0
2
0
0
2
0
0
5
8
97
233
234
121
255
255
41
193
194
0
14
15
0
2
0
0
2
0
0
2
0
0
2
0
0
2
0
0
21
20
47
253
255
107
255
254
107
255
254
107
255
254
121
255
255
43
143
143
0
5
8
0
2
0
0
2
0
0
2
0
0
2
0
3
45
47
107
255
254
151
254
251
151
254
251
121
255
255
0
120
120
0
2
0
0
2
0
0
2
0
0
2
0
0
2
0
0
2
0
0
2
0
0
2
0
0
2
0
0
2
0
0
2
0
0
2
0
0
2
0
0
2
0
0
2
0
0
2
0
0
2
0
0
2
0
0
2
0
0
2
0
0
2
0
0
2
0
0
2
0
0
2
0
0
2
0
0
2
0
0
2
0
0
2
0
0
2
0
0
2
0
0
2
0
0
2
0
0
2
0
0
2
0
0
2
0
0
2
0
0
2
0
0
2
0
0
2
0
0
2
0
0
14
15
40
154
152
121
255
255
145
254
255
35
137
137
0
2
0
0
2
0
0
2
0
0
2
0
0
2
0
0
2
0
0
2
0
0
2
0
35
165
162
121
255
255
72
213
214
0
35
37
0
2
0
0
2
0
0
2
0
0
2
0
0
2
0
0
14
15
65
222
222
121
255
255
107
255
254
107
255
254
107
255
254
66
195
197
3
10
13
0
2
0
0
2
0
0
2
0
0
2
0
0
5
8
53
150
150
151
254
251
151
254
251
151
254
251
100
249
248
14
112
113
0
2
0
0
2
0
0
2
0
0
2
0
0
2
0
0
2
0
0
2
0
0
2
0
0
2
0
0
2
0
0
2
0
0
2
0
0
2
0
0
2
0
0
2
0
0
2
0
0
2
0
0
2
0
0
2
0
0
2
0
0
2
0
0
2
0
0
2
0
0
2
0
0
2
0
0
2
0
0
2
0
0
2
0
0
2
0
0
2
0
0
2
0
0
2
0
0
2
0
0
2
0
0
2
0
0
2
0
0
2
0
0
2
0
0
21
20
51
175
172
121
255
255
151
254
251
66
195
197
0
21
20
0
2
0
0
2
0
0
2
0
0
2
0
0
2
0
0
2
0
0
2
0
0
2
0
1
42
44
107
255
254
86
238
237
5
59
59
0
2
0
0
2
0
0
2
0
0
2
0
0
2
0
0
5
8
29
172
174
121
255
255
107
255
254
107
255
254
121
255
255
91
255
253
4
18
19
0
2
0
0
2
0
0
2
0
0
2
0
0
2
0
3
45
47
101
224
226
151
254
251
151
254
251
145
254
255
107
255
254
8
124
124
0
2
0
0
2
0
0
2
0
0
2
0
0
2
0
0
2
0
0
2
0
0
2
0
0
2
0
0
2
0
0
2
0
0
2
0
0
2
0
0
2
0
0
2
0
0
2
0
0
2
0
0
2
0
0
2
0
0
2
0
0
2
0
0
2
0
0
2
0
0
2
0
0
2
0
0
2
0
0
2
0
0
2
0
0
2
0
0
2
0
0
2
0
0
2
0
0
2
0
0
2
0
0
2
0
0
2
0
0
35
37
61
219
219
121
255
255
132
253
255
86
238
237
0
38
40
0
2
0
0
2
0
0
2
0
0
2
0
0
2
0
0
2
0
0
2
0
0
2
0
0
2
0
0
2
0
26
186
187
91
255
253
20
93
91
0
2
0
0
2
0
0
2
0
0
2
0
0
2
0
0
2
0
6
109
110
107
255
254
121
255
255
121
255
255
121
255
255
121
255
255
9
87
85
0
2
0
0
2
0
0
2
0
0
2
0
0
2
0
0
2
0
14
112
113
128
249
251
151
254
251
151
254
251
132
253
255
121
255
255
29
162
159
3
10
13
0
2
0
0
2
0
0
2
0
0
2
0
0
2
0
0
2
0
0
2
0
0
2
0
0
2
0
0
2
0
0
2
0
0
2
0
0
2
0
0
2
0
0
2
0
0
2
0
0
2
0
0
2
0
0
2
0
0
2
0
0
2
0
0
2
0
0
2
0
0
2
0
0
2
0
0
2
0
0
2
0
0
2
0
0
2
0
0
2
0
0
2
0
0
2
0
0
2
0
0
97
99
91
255
253
132
253
255
132
253
255
100
249
248
0
55
55
0
2
0
0
2
0
0
2
0
0
2
0
0
2
0
0
2
0
0
2
0
0
2
0
0
2
0
0
2
0
0
2
0
5
59
59
91
255
253
40
154
152
0
5
8
0
2
0
0
2
0
0
2
0
0
2
0
0
2
0
9
62
62
91
242
241
121
255
255
121
255
255
121
255
255
121
255
255
50
197
199
0
2
0
0
2
0
0
2
0
0
2
0
0
2
0
0
2
0
0
2
0
40
154
152
145
254
255
151
254
251
132
253
255
132
253
255
121
255
255
61
205
206
0
67
66
0
2
0
0
2
0
0
2
0
0
2
0
0
2
0
0
2
0
0
2
0
0
2
0
0
2
0
0
2
0
0
2
0
0
2
0
0
2
0
0
2
0
0
2
0
0
2
0
0
2
0
0
2
0
0
2
0
0
2
0
0
2
0
0
2
0
0
2
0
0
2
0
0
2
0
0
2
0
0
2
0
0
2
0
0
2
0
0
2
0
2
57
57
39
176
179
107
255
254
121
255
255
132
253
255
83
235
235
0
67
66
0
2
0
0
2
0
0
2
0
0
2
0
0
2
0
0
2
0
0
2
0
0
2
0
0
2
0
0
2
0
0
2
0
0
2
0
0
5
8
40
168
165
46
242
238
0
14
15
0
2
0
0
2
0
0
2
0
0
2
0
0
2
0
0
14
15
50
197
199
121
255
255
121
255
255
121
255
255
121
255
255
121
255
255
0
45
46
0
2
0
0
2
0
0
2
0
0
2
0
0
2
0
0
2
0
0
5
8
50
161
160
145
254
255
151
254
251
132
253
255
121
255
255
121
255
255
91
242
241
45
157
156
0
39
41
0
2
0
0
2
0
0
2
0
0
2
0
0
2
0
0
2
0
0
2
0
0
2
0
0
2
0
0
2
0
0
2
0
0
2
0
0
2
0
0
2
0
0
2
0
0
2
0
0
2
0
0
2
0
0
2
0
0
2
0
0
2
0
0
2
0
0
2
0
0
2
0
0
2
0
0
2
0
0
45
46
40
154
152
83
235
235
107
255
254
121
255
255
121
255
255
72
227
226
9
62
62
0
2
0
0
2
0
0
2
0
0
2
0
0
2
0
0
2
0
0
2
0
0
2
0
0
2
0
0
2
0
0
2
0
0
2
0
0
2
0
0
2
0
0
55
55
46
242
238
14
76
76
0
2
0
0
2
0
0
2
0
0
2
0
0
2
0
0
2
0
8
124
124
118
252
253
121
255
255
121
255
255
121
255
255
121
255
255
41
193
194
0
2
0
0
2
0
0
2
0
0
2
0
0
2
0
0
2
0
0
2
0
0
14
15
55
165
163
132
253
255
132
253
255
132
253
255
121
255
255
121
255
255
107
255
254
86
238
237
12
155
153
1
17
17
0
2
0
0
2
0
0
2
0
0
2
0
0
2
0
0
2
0
0
2
0
0
2
0
0
2
0
0
2
0
0
2
0
0
2
0
0
2
0
0
2
0
0
2
0
0
2
0
0
2
0
0
2
0
0
2
0
0
2
0
0
2
0
0
2
0
3
29
27
29
172
174
91
242
241
107
255
254
107
255
254
121
255
255
121
255
255
61
219
219
3
29
27
0
2
0
0
2
0
0
2
0
0
2
0
0
2
0
0
2
0
0
2
0
0
2
0
0
2
0
0
2
0
0
2
0
0
2
0
0
2
0
0
2
0
0
2
0
0
2
0
4
138
137
22
200
200
0
2
0
0
2
0
0
2
0
0
2
0
0
2
0
0
2
0
0
21
20
86
238
237
121
255
255
121
255
255
121
255
255
121
255
255
110
245
245
9
62
62
0
2
0
0
2
0
0
2
0
0
2
0
0
2
0
0
2
0
0
2
0
0
5
8
55
165
163
132
253
255
132
253
255
132
253
255
121
255
255
121
255
255
107
255
254
107
255
254
91
255
253
35
165
162
8
49
51
0
14
15
0
5
8
0
2
0
0
2
0
0
2
0
0
2
0
0
2
0
0
2
0
0
2
0
0
2
0
0
2
0
0
2
0
0
2
0
0
2
0
0
2
0
0
2
0
3
10
13
1
17
17
5
85
83
26
186
187
91
255
253
107
255
254
107
255
254
107
255
254
107
255
254
105
253
252
0
177
178
0
2
0
0
2
0
0
2
0
0
2
0
0
2
0
0
2
0
0
2
0
0
2
0
0
2
0
0
2
0
0
2
0
0
2
0
0
2
0
0
2
0
0
2
0
0
2
0
0
2
0
0
2
0
0
5
8
0
194
194
10
74
74
0
2
0
0
2
0
0
2
0
0
2
0
0
2
0
0
2
0
17
127
128
121
255
255
121
255
255
121
255
255
121
255
255
121
255
255
61
183
180
0
5
8
0
2
0
0
2
0
0
2
0
0
2
0
0
2
0
0
2
0
0
2
0
0
2
0
8
124
124
97
233
234
132
253
255
132
253
255
121
255
255
121
255
255
107
255
254
107
255
254
107
255
254
91
255
253
50
228
226
50
161
160
19
101
103
14
76
76
8
49
51
0
39
41
0
27
25
0
21
20
0
14
15
0
14
15
0
21
20
5
30
28
1
42
44
5
59
59
9
87
85
27
119
120
26
186
187
54
246
242
91
255
253
91
255
253
91
255
253
107
255
254
107
255
254
107
255
254
65
222
222
0
99
101
0
2
0
0
2
0
0
2
0
0
2
0
0
2
0
0
2
0
0
2
0
0
2
0
0
2
0
0
2
0
0
2
0
0
2
0
0
2
0
0
2
0
0
2
0
0
2
0
0
2
0
0
2
0
0
2
0
0
2
0
0
27
25
26
146
144
0
14
15
0
2
0
0
2
0
0
2
0
0
2
0
0
2
0
0
5
8
65
222
222
132
253
255
121
255
255
121
255
255
121
255
255
121
255
255
19
101
103
0
2
0
0
2
0
0
2
0
0
2
0
0
2
0
0
2
0
0
2
0
0
2
0
0
2
0
5
59
59
50
183
186
121
255
255
132
253
255
121
255
255
121
255
255
107
255
254
107
255
254
107
255
254
91
255
253
91
255
253
91
255
253
85
250
248
72
227
226
61
219
219
31
203
203
41
193
194
41
193
194
41
193
194
50
197
199
45
209
209
65
222
222
60
233
231
47
253
255
91
255
253
91
255
253
91
255
253
91
255
253
91
255
253
107
255
254
107
255
254
89
254
252
18
142
141
1
35
32
0
2
0
0
2
0
0
2
0
0
2
0
0
2
0
0
2
0
0
2
0
0
2
0
0
2
0
0
2
0
0
2
0
0
2
0
0
2
0
0
2
0
0
2
0
0
2
0
0
2
0
0
2
0
0
2
0
0
2
0
0
2
0
0
2
0
5
25
24
1
42
44
0
2
0
0
2
0
0
2
0
0
2
0
0
2
0
0
2
0
8
49
51
107
255
254
132
253
255
121
255
255
121
255
255
132
253
255
91
242
241
6
25
25
0
2
0
0
2
0
0
2
0
0
2
0
0
2
0
0
2
0
0
2
0
0
2
0
0
2
0
0
5
8
9
87
85
71
241
239
121
255
255
121
255
255
121
255
255
107
255
254
107
255
254
107
255
254
91
255
253
91
255
253
91
255
253
91
255
253
91
255
253
89
254
252
89
254
252
89
254
252
69
255
251
89
254
252
89
254
252
89
254
252
89
254
252
89
254
252
91
255
253
91
255
253
91
255
253
91
255
253
107
255
254
91
255
253
29
172
174
7
32
30
0
5
8
0
2
0
0
2
0
0
2
0
0
2
0
0
2
0
0
2
0
0
2
0
0
2
0
0
2
0
0
2
0
0
2
0
0
2
0
0
2
0
0
2
0
0
2
0
0
2
0
0
2
0
0
2
0
0
2
0
0
2
0
0
2
0
0
2
0
0
2
0
0
2
0
0
2
0
0
2
0
0
2
0
0
2
0
0
2
0
0
2
0
0
2
0
0
2
0
28
133
133
121
255
255
121
255
255
121
255
255
121
255
255
132
253
255
33
220
218
0
5
8
0
2
0
0
2
0
0
2
0
0
2
0
0
2
0
0
2
0
0
2
0
0
2
0
0
2
0
0
2
0
0
2
0
0
117
117
72
227
226
100
249
248
107
255
254
107
255
254
107
255
254
107
255
254
91
255
253
91
255
253
91
255
253
91
255
253
91
255
253
91
255
253
89
254
252
89
254
252
89
254
252
89
254
252
89
254
252
91
255
253
91
255
253
91
255
253
91
255
253
85
250
248
71
241
239
9
181
182
0
45
46
0
2
0
0
2
0
0
2
0
0
2
0
0
2
0
0
2
0
0
2
0
0
2
0
0
2
0
0
2
0
0
2
0
0
2
0
0
2
0
0
2
0
0
2
0
0
2
0
0
2
0
0
2
0
0
2
0
0
2
0
0
2
0
0
2
0
0
2
0
0
2
0
0
2
0
0
2
0
0
2
0
0
2
0
0
2
0
0
2
0
0
2
0
0
2
0
0
2
0
0
2
0
0
2
0
0
14
15
56
187
190
132
253
255
132
253
255
132
253
255
132
253
255
132
253
255
45
180
182
0
14
15
0
2
0
0
2
0
0
2
0
0
2
0
0
2
0
0
2
0
0
2
0
0
2
0
0
2
0
0
2
0
0
2
0
0
2
0
5
85
83
35
165
162
61
205
206
86
238
237
91
255
253
107
255
254
107
255
254
107
255
254
107
255
254
91
255
253
91
255
253
91
255
253
91
255
253
91
255
253
91
255
253
91
255
253
91
255
253
78
246
244
61
219
219
0
177
178
0
117
117
0
27
25
0
2
0
0
2
0
0
2
0
0
2
0
0
2
0
0
2
0
0
2
0
0
2
0
0
2
0
0
2
0
0
2
0
0
2
0
0
2
0
0
2
0
0
2
0
0
2
0
0
2
0
0
2
0
0
2
0
0
2
0
0
2
0
0
2
0
0
2
0
0
2
0
0
2
0
0
2
0
0
2
0
0
2
0
0
2
0
0
2
0
0
2
0
0
2
0
0
2
0
0
2
0
0
2
0
0
2
0
0
2
0
0
2
0
3
29
27
65
222
222
132
253
255
132
253
255
132
253
255
132
253
255
121
255
255
44
171
168
0
14
15
0
2
0
0
2
0
0
2
0
0
2
0
0
2
0
0
2
0
0
2
0
0
2
0
0
2
0
0
2
0
0
2
0
0
2
0
0
2
0
0
27
25
5
59
59
20
93
91
28
133
133
24
170
172
22
200
200
33
220
218
60
233
231
71
241
239
65
237
235
50
228
226
45
209
209
9
181
182
26
146
144
0
106
107
1
69
68
0
38
40
0
2
0
0
2
0
0
2
0
0
2
0
0
2
0
0
2
0
0
2
0
0
2
0
0
2
0
0
2
0
0
2
0
0
2
0
0
2
0
0
2
0
0
2
0
0
2
0
0
2
0
0
2
0
0
2
0
0
2
0
0
2
0
0
2
0
0
2
0
0
2
0
0
2
0
0
2
0
0
2
0
0
2
0
0
2
0
0
2
0
0
2
0
0
2
0
0
2
0
0
2
0
0
2
0
0
2
0
0
2
0
0
2
0
0
2
0
0
2
0
0
2
0
0
2
0
3
18
18
60
233
231
145
254
255
132
253
255
132
253
255
132
253
255
121
255
255
26
186
187
0
14
15
0
2
0
0
2
0
0
2
0
0
2
0
0
2
0
0
2
0
0
2
0
0
2
0
0
2
0
0
2
0
0
2
0
0
2
0
0
2
0
0
2
0
0
2
0
0
5
8
0
5
8
0
14
15
0
14
15
1
17
17
1
17
17
1
17
17
1
17
17
0
14
15
3
10
13
0
5
8
0
2
0
0
2
0
0
2
0
0
2
0
0
2
0
0
2
0
0
2
0
0
2
0
0
2
0
0
2
0
0
2
0
0
2
0
0
2
0
0
2
0
0
2
0
0
2
0
0
2
0
0
2
0
0
2
0
0
2
0
0
2
0
0
2
0
0
2
0
0
2
0
0
2
0
0
2
0
0
2
0
0
2
0
0
2
0
0
2
0
0
2
0
0
2
0
0
2
0
0
2
0
0
2
0
0
2
0
0
2
0
0
2
0
0
2
0
0
2
0
0
2
0
0
2
0
0
2
0
0
2
0
0
2
0
0
2
0
0
21
20
51
213
213
132
253
255
132
253
255
132
253
255
132
253
255
132
253
255
44
225
223
0
39
41
0
2
0
0
2
0
0
2
0
0
2
0
0
2
0
0
2
0
0
2
0
0
2
0
0
2
0
0
2
0
0
2
0
0
2
0
0
2
0
0
2
0
0
2
0
0
2
0
0
2
0
0
2
0
0
2
0
0
2
0
0
2
0
0
2
0
0
2
0
0
2
0
0
2
0
0
2
0
0
2
0
0
2
0
0
2
0
0
2
0
0
2
0
0
2
0
0
2
0
0
2
0
0
2
0
0
2
0
0
2
0
0
2
0
0
2
0
0
2
0
0
2
0
0
2
0
0
2
0
0
2
0
0
2
0
0
2
0
0
2
0
0
2
0
0
2
0
0
2
0
0
2
0
0
2
0
0
2
0
0
2
0
0
2
0
0
2
0
0
2
0
0
2
0
0
2
0
0
2
0
0
2
0
0
2
0
0
2
0
0
2
0
0
2
0
0
2
0
0
2
0
0
2
0
0
2
0
0
2
0
0
2
0
0
2
0
0
21
20
44
171
168
121
255
255
151
254
251
132
253
255
132
253
255
151
254
251
95
245
244
21
115
116
1
17
17
0
2
0
0
2
0
0
2
0
0
2
0
0
2
0
0
2
0
0
2
0
0
2
0
0
2
0
0
2
0
0
2
0
0
2
0
0
2
0
0
2
0
0
2
0
0
2
0
0
2
0
0
2
0
0
2
0
0
2
0
0
2
0
0
2
0
0
2
0
0
2
0
0
2
0
0
2
0
0
2
0
0
2
0
0
2
0
0
2
0
0
2
0
0
2
0
0
2
0
0
2
0
0
2
0
0
2
0
0
2
0
0
2
0
0
2
0
0
2
0
0
2
0
0
2
0
0
2
0
0
2
0
0
2
0
0
2
0
0
2
0
0
2
0
0
2
0
0
2
0
0
2
0
0
2
0
0
2
0
0
2
0
0
2
0
0
2
0
0
2
0
0
2
0
0
2
0
0
2
0
0
2
0
0
2
0
0
2
0
0
2
0
0
2
0
0
2
0
0
2
0
0
2
0
0
2
0
0
2
0
0
2
0
0
14
15
6
109
110
78
246
244
151
254
251
151
254
251
132
253
255
151
254
251
121
255
255
66
195
197
5
85
83
0
2
0
0
2
0
0
2
0
0
2
0
0
2
0
0
2
0
0
2
0
0
2
0
0
2
0
0
2
0
0
2
0
0
2
0
0
2
0
0
2
0
0
2
0
0
2
0
0
2
0
0
2
0
0
2
0
0
2
0
0
2
0
0
2
0
0
2
0
0
2
0
0
2
0
0
2
0
0
2
0
0
2
0
0
2
0
0
2
0
0
2
0
0
2
0
0
2
0
0
2
0
0
2
0
0
2
0
0
2
0
0
2
0
0
2
0
0
2
0
0
2
0
0
2
0
0
2
0
0
2
0
0
2
0
0
2
0
0
2
0
0
2
0
0
2
0
0
2
0
0
2
0
0
2
0
0
2
0
0
2
0
0
2
0
0
2
0
0
2
0
0
2
0
0
2
0
0
2
0
0
2
0
0
2
0
0
2
0
0
2
0
0
2
0
0
2
0
0
2
0
0
2
0
0
2
0
0
2
0
0
2
0
0
2
0
0
39
41
26
186
187
132
253
255
151
254
251
151
254
251
151
254
251
132
253
255
123
244
246
31
203
203
1
69
68
0
2
0
0
2
0
0
2
0
0
2
0
0
2
0
0
2
0
0
2
0
0
2
0
0
2
0
0
2
0
0
2
0
0
2
0
0
2
0
0
2
0
0
2
0
0
2
0
0
2
0
0
2
0
0
2
0
0
2
0
0
2
0
0
2
0
0
2
0
0
2
0
0
2
0
0
2
0
0
2
0
0
2
0
0
2
0
0
2
0
0
2
0
0
2
0
0
2
0
0
2
0
0
2
0
0
2
0
0
2
0
0
2
0
0
2
0
0
2
0
0
2
0
0
2
0
0
2
0
0
2
0
0
2
0
0
2
0
0
2
0
0
2
0
0
2
0
0
2
0
0
2
0
0
2
0
0
2
0
0
2
0
0
2
0
0
2
0
0
2
0
0
2
0
0
2
0
0
2
0
0
2
0
0
2
0
0
2
0
0
2
0
0
2
0
0
2
0
0
2
0
0
2
0
0
2
0
0
2
0
0
2
0
0
2
0
9
87
85
61
219
219
128
249
251
132
253
255
151
254
251
151
254
251
151
254
251
121
255
255
45
209
209
18
92
90
4
18
19
0
5
8
0
2
0
0
2
0
0
2
0
0
2
0
0
2
0
0
2
0
0
2
0
0
2
0
0
2
0
0
2
0
0
2
0
0
2
0
0
2
0
0
2
0
0
2
0
0
2
0
0
2
0
0
2
0
0
2
0
0
2
0
0
2
0
0
2
0
0
2
0
0
2
0
0
2
0
0
2
0
0
2
0
0
2
0
0
2
0
0
2
0
0
2
0
0
2
0
0
2
0
0
2
0
0
2
0
0
2
0
0
2
0
0
2
0
0
2
0
0
2
0
0
2
0
0
2
0
0
2
0
0
2
0
0
2
0
0
2
0
0
2
0
0
2
0
0
2
0
0
2
0
0
2
0
0
2
0
0
2
0
0
2
0
0
2
0
0
2
0
0
2
0
0
2
0
0
2
0
0
2
0
0
2
0
0
2
0
0
2
0
0
2
0
0
2
0
0
2
0
0
2
0
0
2
0
0
2
0
0
5
8
0
97
99
61
183
180
106
228
230
121
255
255
151
254
251
151
254
251
162
255
254
132
253
255
85
250
248
51
175
172
14
112
113
10
74
74
3
45
47
0
27
25
0
5
8
0
2
0
0
2
0
0
2
0
0
2
0
0
2
0
0
2
0
0
2
0
0
2
0
0
2
0
0
2
0
0
2
0
0
2
0
0
2
0
0
2
0
0
2
0
0
2
0
0
2
0
0
2
0
0
2
0
0
2
0
0
2
0
0
2
0
0
2
0
0
2
0
0
2
0
0
2
0
0
2
0
0
2
0
0
2
0
0
2
0
0
2
0
0
2
0
0
2
0
0
2
0
0
2
0
0
2
0
0
2
0
0
2
0
0
2
0
0
2
0
0
2
0
0
2
0
0
2
0
0
2
0
0
2
0
0
2
0
0
2
0
0
2
0
0
2
0
0
2
0
0
2
0
0
2
0
0
2
0
0
2
0
0
2
0
0
2
0
0
2
0
0
2
0
0
2
0
0
2
0
0
2
0
0
2
0
0
2
0
0
2
0
0
2
0
0
2
0
0
5
8
8
49
51
24
104
107
60
169
167
90
227
228
121
255
255
162
255
254
162
255
254
162
255
254
132
253
255
121
255
255
106
228
230
85
210
212
77
196
193
72
179
177
66
173
172
51
175
172
39
176
179
0
167
169
0
129
128
1
69
68
3
10
13
0
2
0
0
2
0
0
2
0
0
2
0
0
2
0
0
2
0
0
2
0
0
2
0
0
2
0
0
2
0
0
2
0
0
2
0
0
2
0
0
2
0
0
2
0
0
2
0
0
2
0
0
2
0
0
2
0
0
2
0
0
2
0
0
2
0
0
2
0
0
2
0
0
2
0
0
2
0
0
2
0
0
2
0
0
2
0
0
2
0
0
2
0
0
2
0
0
2
0
0
2
0
0
2
0
0
2
0
0
2
0
0
2
0
0
2
0
0
2
0
0
2
0
0
2
0
0
2
0
0
2
0
0
2
0
0
2
0
0
2
0
0
2
0
0
2
0
0
2
0
0
2
0
0
2
0
0
2
0
0
2
0
0
2
0
0
2
0
0
2
0
0
2
0
0
2
0
0
2
0
0
2
0
0
5
8
4
18
19
1
42
44
10
74
74
4
138
137
0
175
176
72
179
177
79
185
184
79
185
184
79
185
184
72
179
177
39
176
179
0
162
165
0
117
117
0
67
66
0
48
48
0
21
20
0
5
8
0
2
0
0
2
0
0
2
0
0
2
0
0
2
0
0
2
0
0
2
0
0
2
0
0
2
0
0
2
0
0
2
0
0
2
0
0
2
0
0
2
0
0
2
0
0
2
0
0
2
0
0
2
0
0
2
0
0
2
0
0
2
0
0
2
0
0
2
0
0
2
0
0
2
0
0
2
0
0
2
0
0
2
0
0
2
0
0
2
0
0
2
0
0
2
0
0
2
0
0
2
0
0
2
0
0
2
0
0
2
0
0
2
0
0
2
0
0
2
0
0
2
0
0
2
0
0
2
0
0
2
0
0
2
0
0
2
0
0
2
0
0
2
0
0
2
0
0
2
0
0
2
0
0
2
0
0
2
0
0
2
0
0
2
0
0
2
0
0
2
0
0
2
0
0
2
0
0
2
0
0
2
0
0
2
0
0
2
0
0
2
0
0
2
0
0
2
0
0
2
0
0
2
0
0
2
0
0
2
0
0
2
0
0
2
0
0
2
0
0
2
0
0
2
0
0
2
0
0
2
0
0
2
0
0
2
0
0
2
0
0
2
0
0
2
0
0
2
0
0
2
0
0
2
0
0
2
0
0
2
0
0
2
0
0
2
0
0
2
0
0
2
0
0
2
0
0
2
0
0
2
0
0
2
0
0
2
0
0
2
0
0
2
0
0
2
0
0
2
0
0
2
0
0
2
0
0
2
0
0
2
0
0
2
0
0
2
0
0
2
0
0
2
0
0
2
0
0
2
0
0
2
0
0
2
0
0
2
0
0
2
0
0
2
0
0
2
0
0
2
0
0
2
0
0
2
0
0
2
0
0
2
0
0
2
0
0
2
0
0
2
0
0
2
0
0
2
0
0
2
0
0
2
0
0
2
0
0
2
0
0
2
0
0
2
0
0
2
0
0
2
0
0
2
0
0
2
0
0
2
0
0
2
0
0
2
0
0
2
0
0
2
0
0
2
0
0
2
0
0
2
0
0
2
0
0
2
0
0
2
0
0
2
0
0
2
0
0
2
0
0
2
0
0
2
0
0
2
0
0
2
0
0
2
0
0
2
0
0
2
0
0
2
0
0
2
0
0
2
0
0
2
0
0
2
0
0
2
0
0
2
0
0
2
0
0
2
0
0
2
0
0
2
0
0
2
0
0
2
0
0
2
0
0
2
0
0
2
0
0
2
0
0
2
0
0
2
0
0
2
0
0
2
0
0
2
0
0
2
0
0
2
0
0
2
0
0
2
0
0
2
0
0
2
0
0
2
0
0
2
0
0
2
0
0
2
0
0
2
0
0
2
0
0
2
0
0
2
0
0
2
0
0
2
0
0
2
0
0
2
0
0
2
0
0
2
0
0
2
0
0
2
0
0
2
0
0
2
0
0
2
0
0
2
0
0
2
0
0
2
0
0
2
0
0
2
0
0
2
0
0
2
0
0
2
0
0
2
0
0
2
0
0
2
0
0
2
0
0
2
0
0
2
0
0
2
0
0
2
0
0
2
0
0
2
0
0
2
0
0
2
0
0
2
0
0
2
0
0
2
0
0
2
0
0
2
0
0
2
0
0
2
0
0
2
0
0
2
0
0
2
0
0
2
0
0
2
0
0
2
0
0
2
0
0
2
0
0
2
0
0
2
0
0
2
0
0
2
0
0
2
0
0
2
0
0
2
0
0
2
0
0
2
0
0
2
0
0
2
0
0
2
0
0
2
0
0
2
0
0
2
0
0
2
0
0
2
0
0
2
0
0
2
0
0
2
0
0
2
0
0
2
0
0
2
0
0
2
0
0
2
0
0
2
0
0
2
0
0
2
0
0
2
0
0
2
0
0
2
0
0
2
0
0
2
0
0
2
0
0
2
0
0
2
0
0
2
0
0
2
0
0
2
0
0
2
0
0
2
0
0
2
0
0
2
0
0
2
0
0
2
0
0
2
0
0
2
0
0
2
0
0
2
0
0
2
0
0
2
0
0
2
0
0
2
0
0
2
0
0
2
0
0
2
0
0
2
0
0
2
0
0
2
0
0
2
0
0
2
0
0
2
0
0
2
0
0
2
0
0
2
0
0
2
0
0
2
0
0
2
0
0
2
0
0
2
0
0
2
0
0
2
0
0
2
0
0
2
0
0
2
0
0
2
0
0
2
0
0
2
0
0
2
0
0
2
0
0
2
0
0
2
0
0
2
0
0
2
0
0
2
0
0
2
0
0
2
0
0
2
0
0
2
0
0
2
0
0
2
0
0
2
0
0
2
0
0
2
0
0
2
0
0
2
0
0
2
0
0
2
0
0
2
0
0
2
0
0
2
0
0
2
0
0
2
0
0
2
0
0
2
0
0
2
0
0
2
0
0
2
0
0
2
0
0
2
0
0
2
0
